<svg xmlns="http://www.w3.org/2000/svg" width="88" height="22" fill="none" viewBox="0 0 88 22">
  <path fill="#885200" stroke="#000" d="M5.045 3.77c-.98-.106-1.825-.198-2.507-.274 1.281-.415 2.874-.787 4.735-1.115 2.867-.505 6.333-.9 10.204-1.194C25.22.597 34.555.412 43.908.537c9.353.126 18.715.562 26.508 1.217 5.967.501 10.983 1.128 14.372 1.833l-1.622.168c-2.728.28-6.533.656-10.84 1.034-8.616.757-19.224 1.525-27.23 1.577-8.78.057-19.911-.716-28.857-1.505A619.21 619.21 0 015.045 3.769z"/>
  <path fill="#F90" stroke="#000" d="M86.6 4.366c-14 23-68.5 22-85 0 33.952 3.434 52.517 3.359 85 0z"/>
  <g>
    <path fill="#C5A989" d="M75.6 10.355c.366-.184.463-.416.5-.989-.463.094-.704.19-1 .66.003.272.07.377.5.329zM73.6 12.355c.366-.184.463-.416.5-.989-.463.094-.704.19-1 .66.003.272.07.377.5.329zM72.6 9.355c.366-.184.463-.416.5-.989-.463.094-.704.19-1 .66.003.272.07.377.5.329zM67.6 13.355c.366-.184.463-.416.5-.989-.463.094-.704.19-1 .66.003.272.07.377.5.329zM57.958 10.199c.115-.394.01-.622-.383-1.04-.248.404-.34.645-.2 1.181.203.184.325.207.583-.141zM48.528 13.617c.24-.332.219-.583-.013-1.108-.367.297-.536.494-.582 1.046.129.242.236.304.595.062zM52.528 19.125c.24-.332.219-.582-.013-1.108-.367.297-.536.494-.582 1.047.129.24.236.303.595.061zM37.323 13.617c.24-.332.218-.583-.013-1.108-.368.297-.537.494-.583 1.046.129.242.236.304.596.062zM25.229 14.184c.079-.402-.046-.62-.476-1-.21.423-.28.673-.09 1.194.217.165.34.176.566-.194zM19.568 11.964c.08-.402-.045-.62-.475-1-.21.423-.28.672-.091 1.193.218.165.34.177.566-.193zM63.6 16.355c.366-.184.463-.416.5-.989-.463.094-.704.19-1 .66.003.272.07.377.5.329zM56.944 15.213c.13-.388.036-.62-.34-1.054-.264.393-.366.63-.247 1.172.194.192.315.22.587-.118zM59.737 17.006c.13-.388.036-.62-.34-1.054-.264.393-.366.63-.247 1.172.194.192.315.22.587-.118zM46.366 18.125c.24-.332.218-.582-.013-1.108-.368.297-.536.494-.583 1.047.129.24.236.303.596.061zM59.668 13.094c.216-.349.176-.597-.093-1.104-.345.323-.499.531-.505 1.086.146.23.257.285.598.018zM53.924 12.232c.152-.381.07-.619-.282-1.072-.284.378-.4.61-.31 1.157.183.202.302.236.592-.085zM29.55 10.667c-.022-.409-.196-.59-.705-.855-.1.463-.108.722.202 1.181.251.107.374.088.502-.326zM34.889 12.207c-.022-.41-.195-.591-.705-.855-.1.462-.108.72.202 1.18.252.107.374.088.503-.325zM32.889 9.903c-.022-.409-.195-.59-.705-.854-.1.462-.108.72.202 1.18.252.107.374.088.503-.325zM37.889 16.207c-.022-.41-.195-.591-.705-.855-.1.462-.108.72.202 1.18.252.107.374.088.503-.325zM42.718 12.232c.152-.381.07-.619-.282-1.072-.284.378-.4.61-.31 1.157.183.202.302.236.592-.085zM23.889 8.447c-.021-.41-.195-.59-.705-.855-.1.462-.108.721.202 1.18.252.108.374.089.503-.325zM42.32 16.85c.24-.333.218-.583-.014-1.109-.367.298-.536.495-.582 1.047.129.24.236.303.595.061zM67.6 10.355c.366-.184.463-.416.5-.989-.463.094-.704.19-1 .66.003.272.07.377.5.329zM60.756 9.329c.289-.291.306-.542.158-1.097-.41.237-.606.406-.737.945.09.258.187.336.58.152zM22.857 12.347c.079-.402-.046-.62-.476-1-.21.424-.28.673-.09 1.194.217.165.34.176.566-.194zM47.143 10.956c.24-.332.218-.583-.013-1.108-.368.297-.536.494-.583 1.046.13.242.236.304.596.062zM51.143 16.464c.24-.332.218-.582-.013-1.108-.368.297-.536.494-.583 1.047.13.24.236.303.596.061zM35.937 10.956c.24-.332.219-.583-.013-1.108-.367.297-.536.494-.582 1.046.129.242.236.304.595.062zM17.196 10.127c.08-.402-.045-.62-.475-1-.21.423-.28.672-.091 1.193.218.165.34.177.566-.193zM69.6 11.355c.366-.184.463-.416.5-.989-.463.094-.704.19-1 .66.003.272.07.377.5.329zM24.872 11.378c.08-.402-.045-.62-.475-1-.21.424-.28.673-.092 1.194.218.165.342.177.567-.194zM30.212 12.918c.079-.403-.046-.62-.476-1.001-.21.424-.28.673-.091 1.194.218.165.341.177.567-.194zM33.212 16.918c.078-.403-.046-.62-.476-1.001-.21.424-.28.673-.091 1.194.218.165.341.177.566-.194zM28.785 16.964c.079-.402-.046-.62-.476-1-.21.423-.28.672-.09 1.193.217.165.34.177.566-.193zM63.633 10.169c.281-.282.296-.5.149-.962-.4.248-.591.414-.717.892.09.213.185.27.568.07zM49.379 10.92c.24-.333.218-.583-.013-1.108-.368.297-.536.494-.583 1.046.13.241.236.303.596.061zM53.379 16.427c.24-.332.218-.582-.013-1.107-.368.297-.536.494-.583 1.046.13.241.236.303.596.061zM38.173 10.92c.24-.333.218-.583-.013-1.108-.368.297-.536.494-.583 1.046.13.241.236.303.596.061zM19.212 9.158c.079-.402-.046-.62-.476-1-.21.423-.28.672-.091 1.193.218.165.341.177.567-.193zM27.856 12.424c.08-.402-.045-.62-.475-1-.21.424-.28.673-.091 1.194.218.165.34.177.566-.194zM33.196 13.964c.079-.402-.046-.62-.476-1-.21.423-.28.672-.09 1.193.217.165.34.177.566-.193zM36.196 17.964c.079-.402-.046-.62-.476-1-.21.423-.28.672-.09 1.193.217.165.34.177.566-.193zM70.6 14.355c.366-.184.463-.416.5-.989-.463.094-.704.19-1 .66.003.272.07.377.5.329zM63.6 13.355c.366-.184.463-.416.5-.989-.463.094-.704.19-1 .66.003.272.07.377.5.329zM51.651 13.119c.24-.333.218-.583-.013-1.108-.368.297-.536.494-.582 1.046.129.241.236.303.595.062zM55.651 18.627c.24-.332.218-.583-.013-1.108-.368.297-.536.494-.582 1.046.129.241.236.303.595.062zM40.445 13.119c.24-.333.219-.583-.013-1.108-.367.297-.536.494-.582 1.046.129.241.236.303.595.062zM22.196 10.204c.079-.402-.046-.62-.476-1-.21.423-.28.672-.09 1.194.217.165.34.176.566-.194z"/>
  </g>
</svg>
