<svg xmlns="http://www.w3.org/2000/svg" width="88" height="23" fill="none" viewBox="0 0 88 23">
  <path fill="#885200" stroke="#000" d="M83.055 18.597c.98.104 1.825.197 2.507.273-1.281.415-2.874.787-4.735 1.115-2.867.505-6.333.9-10.204 1.194-7.743.59-17.078.775-26.431.65-9.353-.126-18.715-.562-26.508-1.217-5.967-.501-10.983-1.128-14.372-1.833a726.704 726.704 0 0112.462-1.202c8.616-.757 19.224-1.525 27.23-1.577 8.78-.057 19.911.716 28.857 1.505 4.47.395 8.39.793 11.194 1.092z"/>
  <path fill="#F90" stroke="#000" d="M1.5 18c14-23 68.5-22 85 0-33.952-3.434-52.517-3.359-85 0z"/>
  <g>
    <path fill="#C5A989" d="M12.5 12.011c-.366.184-.463.416-.5.989.463-.094.704-.19 1-.66-.003-.272-.07-.377-.5-.329zM14.5 10.011c-.366.184-.463.416-.5.989.463-.094.704-.19 1-.66-.003-.272-.07-.377-.5-.329zM15.5 13.011c-.366.184-.463.416-.5.989.463-.094.704-.19 1-.66-.003-.272-.07-.377-.5-.329zM20.5 9.011c-.366.184-.463.416-.5.989.463-.094.704-.19 1-.66-.003-.272-.07-.377-.5-.329zM30.142 12.167c-.115.393-.01.622.383 1.04.248-.404.34-.645.2-1.181-.203-.184-.325-.207-.583.141zM39.572 8.75c-.24.331-.219.582.012 1.107.368-.297.537-.494.583-1.046-.129-.242-.236-.304-.596-.062zM35.572 3.241c-.24.332-.219.582.012 1.108.368-.297.537-.494.583-1.047-.129-.24-.236-.303-.596-.061zM50.777 8.75c-.24.331-.218.582.013 1.107.368-.297.537-.494.583-1.046-.129-.242-.236-.304-.596-.062zM62.871 8.182c-.079.402.046.62.476 1 .21-.423.28-.673.09-1.194-.217-.165-.34-.176-.566.194zM68.532 10.402c-.08.403.045.62.475 1 .21-.423.28-.672.091-1.193-.218-.165-.34-.177-.566.193zM24.5 6.011c-.366.184-.463.416-.5.989.463-.094.704-.19 1-.66-.003-.272-.07-.377-.5-.329zM31.156 7.153c-.13.388-.036.62.34 1.054.264-.393.366-.63.247-1.172-.194-.192-.315-.22-.587.118zM28.363 5.36c-.13.388-.036.62.34 1.054.264-.393.367-.63.248-1.172-.195-.192-.316-.22-.588.118zM41.734 4.241c-.24.332-.218.582.013 1.108.368-.297.536-.494.583-1.047-.129-.24-.236-.303-.596-.061zM28.432 9.272c-.216.349-.176.597.093 1.104.345-.323.499-.532.505-1.086-.146-.23-.257-.285-.598-.018zM34.176 10.134c-.152.381-.07.619.282 1.072.284-.378.4-.61.31-1.157-.183-.202-.302-.237-.592.085zM58.55 11.699c.022.409.196.59.705.854.1-.462.108-.72-.202-1.18-.251-.107-.374-.088-.502.326zM53.211 10.16c.022.409.195.59.705.854.1-.462.108-.72-.202-1.18-.252-.107-.374-.089-.503.325zM55.211 12.463c.022.409.195.59.705.854.1-.462.108-.72-.202-1.18-.252-.107-.374-.088-.503.325zM50.211 6.16c.022.409.195.59.705.854.1-.462.108-.72-.202-1.18-.252-.107-.374-.089-.503.325zM45.382 10.134c-.152.381-.07.619.282 1.072.284-.378.4-.61.31-1.157-.183-.202-.302-.237-.592.085zM64.211 13.92c.022.408.195.59.705.854.1-.462.108-.721-.202-1.18-.252-.107-.374-.089-.503.325zM45.78 5.517c-.24.332-.218.582.014 1.107.367-.297.536-.494.582-1.046-.129-.241-.236-.303-.595-.061zM20.5 12.011c-.366.184-.463.416-.5.989.463-.094.704-.19 1-.66-.003-.272-.07-.377-.5-.329zM27.344 13.037c-.289.291-.306.542-.158 1.097.41-.238.606-.406.737-.945-.09-.258-.187-.336-.58-.152zM65.243 10.019c-.079.402.046.62.476 1 .21-.424.28-.673.09-1.194-.217-.165-.34-.176-.566.194zM40.957 11.41c-.24.332-.218.583.013 1.108.368-.297.536-.494.583-1.046-.13-.242-.236-.304-.596-.062zM36.957 5.902c-.24.332-.218.582.013 1.108.368-.297.536-.494.583-1.047-.13-.24-.236-.303-.596-.061zM52.163 11.41c-.24.332-.219.583.013 1.108.367-.297.536-.494.582-1.046-.129-.242-.236-.304-.595-.062zM70.904 12.24c-.08.401.045.62.475 1 .21-.424.28-.673.091-1.194-.218-.165-.34-.177-.566.193zM18.5 11.011c-.366.184-.463.416-.5.989.463-.094.704-.19 1-.66-.003-.272-.07-.377-.5-.329zM63.228 10.988c-.08.402.045.62.475 1 .21-.424.28-.673.092-1.194-.218-.165-.342-.177-.567.194zM57.889 9.448c-.08.403.045.62.475 1.001.21-.424.28-.673.091-1.194-.218-.165-.341-.177-.566.193zM54.889 5.448c-.08.403.045.62.475 1.001.21-.424.28-.673.091-1.194-.218-.165-.341-.177-.566.193zM59.315 5.402c-.079.402.046.62.476 1 .21-.423.28-.672.09-1.193-.217-.165-.34-.177-.566.193zM24.467 12.197c-.281.282-.296.5-.149.962.4-.248.591-.414.717-.892-.09-.213-.185-.27-.568-.07zM38.721 11.447c-.24.332-.218.582.013 1.107.368-.297.536-.494.583-1.046-.13-.241-.236-.303-.596-.061zM34.721 5.939c-.24.332-.218.582.013 1.107.368-.297.536-.494.583-1.046-.13-.241-.236-.303-.596-.061zM49.927 11.447c-.24.332-.218.582.013 1.107.368-.297.536-.494.583-1.046-.13-.241-.236-.303-.596-.061zM68.888 13.208c-.079.402.046.62.476 1 .21-.423.28-.672.091-1.193-.218-.165-.341-.177-.567.193zM60.244 9.942c-.08.402.045.62.475 1 .21-.424.28-.673.091-1.194-.218-.165-.34-.177-.566.194zM54.904 8.402c-.079.402.046.62.476 1 .21-.423.28-.672.09-1.193-.217-.165-.34-.177-.566.193zM51.904 4.402c-.079.402.046.62.476 1 .21-.423.28-.672.09-1.193-.217-.165-.34-.177-.566.193zM17.5 8.011c-.366.184-.463.416-.5.989.463-.094.704-.19 1-.66-.003-.272-.07-.377-.5-.329zM24.5 9.011c-.366.184-.463.416-.5.989.463-.094.704-.19 1-.66-.003-.272-.07-.377-.5-.329zM36.449 9.247c-.24.333-.218.583.013 1.108.368-.297.536-.494.582-1.046-.128-.241-.235-.303-.595-.062zM32.449 3.74c-.24.332-.218.582.013 1.107.368-.297.536-.494.582-1.046-.128-.241-.235-.303-.595-.062zM47.655 9.247c-.24.333-.219.583.013 1.108.367-.297.536-.494.582-1.046-.129-.241-.236-.303-.595-.062zM65.904 12.162c-.079.402.046.62.476 1 .21-.423.28-.673.09-1.194-.217-.165-.34-.176-.566.194z"/>
  </g>
</svg>
