<svg xmlns="http://www.w3.org/2000/svg" width="25" height="63" fill="none" viewBox="0 0 25 63">
  <path fill="#D70000" stroke="#930000" d="M1 58.5V16c7.832 4.217 12.727 4.354 22.5 0v42.5c-8.519 4.456-13.44 4.54-22.5 0z"/>
  <path fill="#555" stroke="#A00" d="M23.5 15c0 .359-.215.826-.754 1.357-.53.52-1.32 1.047-2.326 1.519-2.01.94-4.813 1.624-7.92 1.624-3.108 0-6.039-.684-8.18-1.629-1.072-.473-1.925-1.003-2.502-1.527C1.228 15.805 1 15.341 1 15c0-.302.183-.632.743-.974.558-.342 1.399-.633 2.48-.866 2.155-.462 5.114-.66 8.277-.66 3.164 0 5.994.198 8.02.66 1.018.23 1.792.52 2.3.856.503.332.68.66.68.984z"/>
  <path fill="#930000" stroke="#930000" d="M9.016 15.874l-.09.344.296.198c1.302.87 2.368 1.317 3.435 1.29 1.065-.028 2.03-.527 3.13-1.296l.285-.2-.088-.336-3-11.5-.484-1.855-.484 1.855-3 11.5z"/>
  <path fill="#000" d="M4.736 33.87l-.145-1.38-.54 1.016-.865-.46 1.736-3.267.866.46L4.85 32l1.2-.607 1.038.551-1.637.727.339 1.76-1.055-.561zM9.327 33.77c-.017.074-.04.148-.066.22l-1.809-.413c-.024.151-.009.273.045.364a.403.403 0 00.259.172.36.36 0 00.39-.136l1.018.233a1.227 1.227 0 01-.364.45c-.154.118-.333.199-.537.24a1.499 1.499 0 01-.643-.013 1.536 1.536 0 01-.683-.336 1.278 1.278 0 01-.38-.6c-.07-.237-.07-.5-.006-.785.066-.286.18-.52.345-.701.166-.185.365-.31.6-.376.237-.066.492-.067.765-.005.27.062.496.172.678.33.183.158.309.355.378.59.07.23.074.486.01.766zm-.92-.462a.344.344 0 00-.055-.3.44.44 0 00-.27-.17.434.434 0 00-.309.032.463.463 0 00-.21.245l.843.193zM11.403 34.398l-.023.834-.425-.011c-.716-.02-1.065-.384-1.045-1.094l.025-.924-.345-.01.022-.814.345.009.018-.68.985.027-.019.68.51.013-.022.815-.51-.014-.025.94c-.002.077.013.132.045.166.036.035.096.053.179.055l.285.008zM11.668 33.86a1.544 1.544 0 01.049-.78c.081-.233.217-.425.408-.576.194-.152.427-.251.7-.298.351-.06.664-.014.937.139.272.15.473.39.6.724l-1.024.175c-.09-.17-.221-.24-.392-.212a.344.344 0 00-.264.203c-.053.11-.062.263-.029.456.033.194.093.336.18.426.09.09.195.124.317.103.174-.03.273-.14.298-.33l1.025-.176c-.01.354-.119.648-.325.883-.207.235-.486.383-.838.443-.272.046-.525.03-.758-.048a1.245 1.245 0 01-.578-.408 1.554 1.554 0 01-.306-.724zM17.027 30.792l1.111 2.576-.904.39-.158-.367a.945.945 0 01-.194.421c-.105.129-.244.23-.419.306-.3.13-.579.133-.838.013-.257-.125-.459-.358-.606-.697l-.645-1.497.895-.386.596 1.382a.55.55 0 00.265.3.45.45 0 00.366-.012.44.44 0 00.259-.258.55.55 0 00-.036-.399l-.596-1.382.904-.39zM21.156 32.018l-1.301-.48.671.933-.795.572-2.16-3.004.795-.572 1.165 1.62-.013-1.346.954-.686-.074 1.79 1.728.475-.97.698z"/>
</svg>
