<svg xmlns="http://www.w3.org/2000/svg" width="24" height="63" fill="none" viewBox="0 0 24 63">
  <path fill="#AAA490" stroke="#AAA490" d="M.5 58.5V16c7.832 4.217 12.727 4.354 22.5 0v42.5c-8.519 4.456-13.44 4.54-22.5 0z"/>
  <path fill="#555" stroke="#242222" d="M23 15c0 .359-.215.826-.754 1.357-.53.52-1.32 1.047-2.326 1.519-2.01.94-4.813 1.624-7.92 1.624-3.108 0-6.039-.684-8.18-1.629-1.072-.473-1.925-1.003-2.502-1.527C.728 15.805.5 15.341.5 15c0-.302.183-.632.743-.974.558-.342 1.399-.633 2.48-.866 2.155-.462 5.114-.66 8.277-.66 3.164 0 5.994.198 8.02.66 1.018.23 1.792.52 2.3.856.503.332.68.66.68.984z"/>
  <path fill="#AAA490" stroke="#AAA490" d="M8.516 15.874l-.09.344.296.198c1.302.87 2.368 1.317 3.435 1.29 1.065-.028 2.03-.527 3.13-1.296l.285-.2-.088-.336-3-11.5L12 2.519l-.484 1.855-3 11.5z"/>
  <path fill="#5C0043" d="M4.76 31.04l-.564-.165-.418-1.355-.333 1.135-.564-.166.596-2.03.564.166.414 1.37.337-1.15.564.167-.596 2.029zM7.576 30.752c-.009.046-.02.09-.034.135l-1.095-.203c-.01.092.001.165.036.218.038.051.09.083.16.096a.216.216 0 00.23-.091l.617.113a.736.736 0 01-.208.28.775.775 0 01-.316.158.902.902 0 01-.385.008.922.922 0 01-.418-.184.767.767 0 01-.244-.35.933.933 0 01-.022-.471.915.915 0 01.189-.429.747.747 0 01.349-.24.927.927 0 01.459-.023c.163.03.301.09.415.18.113.09.194.205.241.344.048.137.057.29.026.46zm-.564-.253c.013-.07 0-.13-.04-.178a.263.263 0 00-.166-.095.26.26 0 00-.185.027.278.278 0 00-.12.152l.511.094zM9.247 30.115c.193.018.34.097.442.237.101.138.142.317.122.536l-.091.977-.586-.055.084-.899a.319.319 0 00-.054-.231.256.256 0 00-.192-.102.263.263 0 00-.214.064.319.319 0 00-.096.217l-.083.9-.586-.055.156-1.676.586.055-.023.239a.623.623 0 01.534-.206zM12.744 31.118c-.001.046-.005.091-.011.137l-1.113-.015c.005.092.029.161.072.208a.241.241 0 00.173.068.216.216 0 00.212-.129l.627.009a.735.735 0 01-.158.31.775.775 0 01-.284.209.9.9 0 01-.38.073.921.921 0 01-.442-.111.767.767 0 01-.299-.305.932.932 0 01-.101-.46.915.915 0 01.114-.454.747.747 0 01.304-.296.928.928 0 01.448-.1.926.926 0 01.44.109c.127.07.226.17.296.298.07.127.104.277.102.449zm-.598-.156a.207.207 0 00-.07-.169.263.263 0 00-.179-.065.26.26 0 00-.178.057.278.278 0 00-.092.17l.519.007zM15.323 30.153c.212-.016.382.035.511.154.131.119.205.289.221.51l.073.978-.586.044-.067-.9a.284.284 0 00-.09-.204.276.276 0 00-.21-.06.275.275 0 00-.197.09.284.284 0 00-.06.215l.068.9-.587.044-.067-.9a.284.284 0 00-.09-.204.265.265 0 00-.206-.06.28.28 0 00-.201.09.284.284 0 00-.06.215l.068.9-.587.044-.125-1.678.587-.044.016.222a.555.555 0 01.188-.186.61.61 0 01.282-.087c.124-.01.236.01.335.056a.589.589 0 01.248.21.683.683 0 01.536-.35zM17.345 29.775a.369.369 0 01-.262-.046.284.284 0 01-.124-.2.287.287 0 01.06-.23.36.36 0 01.237-.123c.1-.015.186.002.256.05a.283.283 0 01.127.202.28.28 0 01-.063.228.353.353 0 01-.231.12zm.31.112l.248 1.665-.582.086-.247-1.665.581-.086zM19.173 29.598c.19-.04.354-.01.492.094.139.101.23.26.277.475l.205.959-.575.123-.189-.883a.318.318 0 00-.12-.204.256.256 0 00-.214-.04.263.263 0 00-.185.125.318.318 0 00-.027.236l.19.883-.576.123-.352-1.646.575-.123.05.235a.622.622 0 01.448-.357z"/>
  <g>
    <path fill="#5C0043" d="M5.889 33.484l-.544 2.043-.568-.151.3-1.128-.686 1.025-.475-.126-.086-1.24-.303 1.136-.568-.151.544-2.044.687.183.16 1.465.855-1.195.684.183zM6.051 34.824a1.05 1.05 0 01.15-.441c.08-.12.178-.21.294-.265a.667.667 0 01.376-.058c.115.014.211.05.289.106a.499.499 0 01.17.209l.03-.232.583.074-.212 1.67-.583-.075.03-.232a.494.494 0 01-.22.16.61.61 0 01-.304.031.668.668 0 01-.35-.15.732.732 0 01-.218-.33 1.068 1.068 0 01-.035-.467zm1.203.152a.351.351 0 00-.057-.264.284.284 0 00-.203-.12.287.287 0 00-.229.065c-.065.052-.105.133-.118.242a.37.37 0 00.054.267c.05.069.118.109.205.12.085.01.16-.011.226-.065a.355.355 0 00.122-.245zM11.03 34.407l-1.158 2.444-.639-.023.434-.858-.631-1.635.653.024.32.966.376-.94.644.023zM12.1 36.086a.963.963 0 01-.456-.093.777.777 0 01-.32-.29.893.893 0 01-.127-.456.887.887 0 01.101-.46.796.796 0 01.306-.308.964.964 0 01.45-.118.946.946 0 01.453.093.771.771 0 01.324.29.87.87 0 01.13.453.885.885 0 01-.105.462.772.772 0 01-.306.309.963.963 0 01-.45.118zm-.014-.51a.263.263 0 00.201-.096.38.38 0 00.077-.266c-.004-.114-.034-.2-.092-.259a.26.26 0 00-.203-.084.26.26 0 00-.199.096c-.052.061-.076.149-.073.263.003.116.031.203.085.262a.253.253 0 00.204.084zM14.323 34.23c.194-.02.353.03.48.147.126.116.2.283.223.502l.1.976-.585.06-.092-.898a.319.319 0 00-.098-.217.256.256 0 00-.208-.063.263.263 0 00-.197.105.318.318 0 00-.052.231l.091.899-.585.06-.17-1.675.585-.06.024.24a.623.623 0 01.484-.306zM17.915 34.56c.008.045.013.09.015.137l-1.097.192c.022.09.059.154.11.191a.242.242 0 00.183.035.216.216 0 00.184-.166l.617-.108a.735.735 0 01-.096.333.774.774 0 01-.241.259.9.9 0 01-.36.142.921.921 0 01-.455-.027.767.767 0 01-.35-.243.932.932 0 01-.186-.433.916.916 0 01.028-.468.747.747 0 01.244-.347.929.929 0 01.422-.181.927.927 0 01.452.024.732.732 0 01.346.238.886.886 0 01.184.422zm-.617-.041a.206.206 0 00-.1-.154.263.263 0 00-.188-.03.26.26 0 00-.164.09.278.278 0 00-.059.183l.511-.09zM18.95 34.713l.698-.165.112.476-1.328.315-.107-.453.483-.864-.645.153-.113-.475 1.299-.308.107.452-.506.87zM20.284 32.979a.369.369 0 01-.265-.011.284.284 0 01-.15-.182.287.287 0 01.03-.236.361.361 0 01.218-.154.346.346 0 01.26.016c.078.038.129.1.153.184a.28.28 0 01-.033.234.353.353 0 01-.213.149zm.323.07l.464 1.617-.565.162-.464-1.617.565-.163z"/>
  </g>
</svg>
