<svg xmlns="http://www.w3.org/2000/svg" width="86" height="13" fill="none" viewBox="0 0 86 13">
  <path fill="#7C4512" d="M85 2.5C85 3.88 66.196 5 43 5S1 3.88 1 2.5 19.804 0 43 0s42 1.12 42 2.5zM85 10c0 1.38-18.804 2.5-42 2.5S1 11.38 1 10s18.804-2.5 42-2.5S85 8.62 85 10z"/>
  <path fill="#5A2905" stroke="#5C3802" stroke-width=".1" d="M1 2.5V10c5 3.5 81.5 2.5 84 0V2.5C74.638 6.223 4.696 5.267 1 2.5z"/>
  <path fill="#2B0F00" d="M26 2.5c4.688-.722 6.128-1.178 8.5-2-4.006.44-6.757.694-11 1.5-3.083.518-4.033.862-6.5 1.5 3.904-.234 6.057-.379 9-1zM37 3c4.688-.722 6.128-1.678 8.5-2.5-4.006.44-6.757 1.194-11 2-3.083.518-4.033.862-6.5 1.5 3.904-.234 6.057-.379 9-1zM50 2.5c4.688-.722 4.128-1.178 6.5-2-4.006.44-4.757.694-9 1.5-3.083.518-4.033.862-6.5 1.5 3.904-.234 6.057-.379 9-1z"/>
</svg>
