<svg xmlns="http://www.w3.org/2000/svg" width="40" height="13" fill="none" viewBox="0 0 40 13">
  <path fill="#005813" stroke="#004603" stroke-width=".3" d="M12.999 4.106c-.012.12-.13.267-.449.41-.306.14-.75.253-1.307.332-1.11.156-2.632.17-4.3.002-1.667-.17-3.155-.488-4.212-.864-.53-.188-.942-.388-1.215-.586-.282-.205-.369-.373-.357-.493.012-.12.13-.267.449-.41.306-.14.75-.253 1.307-.332 1.11-.156 2.632-.17 4.3-.002 1.668.17 3.155.488 4.212.864.53.188.942.389 1.215.586.282.205.369.373.357.493z"/>
  <path fill="#041F00" stroke="#004603" stroke-width=".1" d="M.958 4.897l.19-1.887a.262.262 0 01.011-.103l-.01.103c.017.183.22.378.561.573.115.066.299-.64.444-.575.17.076.305.925.51 1 .264.096.556.19.868.28.158.046.394-.625.562-.581.174.045.28.804.464.846.439.102.9.195 1.373.276.236.04.55-.665.79-.631.231.033.389.807.621.834.551.063 1.101.106 1.63.126.26.01.347-.895.594-.897.232-.003.624.898.842.884a7.13 7.13 0 001.47-.228c.185-.053.073-.83.225-.902.15-.07.564.565.676.476.138-.11.246-.234.32-.375l-.202 1.99c-.014.132-.11.25-.277.356-.097.061-.678.486-.819.538-.129.047.186-.277.024-.238a9.12 9.12 0 01-1.202.196c-.244.026-1.143.77-1.41.785-.267.015.098-.7-.186-.697A24.18 24.18 0 017.184 7c-.247-.016-.553.543-.8.52-.24-.023-.422-.627-.66-.657a17.443 17.443 0 01-1.915-.344c-.156-.038.08.713-.068.671-.142-.04-.667-.874-.8-.918a5.862 5.862 0 01-1.144-.505c-.076-.045.072.772.005.724-.107-.076-.423-1.018-.507-1.1a1.386 1.386 0 01-.337-.493z"/>
  <path fill="#005813" stroke="#004603" stroke-width=".3" d="M25.092 5.497c.026.118-.041.295-.298.53-.248.228-.636.474-1.14.722-1.007.495-2.448.982-4.085 1.34-1.638.36-3.15.52-4.272.491-.562-.014-1.016-.076-1.337-.179-.332-.106-.467-.24-.492-.357-.026-.117.04-.294.298-.53.248-.227.635-.474 1.14-.721 1.006-.495 2.447-.982 4.085-1.34 1.637-.36 3.15-.52 4.271-.491.562.014 1.017.075 1.337.178.332.107.467.24.493.357z"/>
  <path fill="#041F00" stroke="#004603" stroke-width=".1" d="M13.896 9.998l-.406-1.853a.263.263 0 01-.022-.1l.022.1c.073.169.326.29.711.37.13.027.085-.702.243-.685.185.02.578.784.795.791.282.01.588.008.913-.003.165-.006.18-.716.353-.727.18-.012.518.676.705.66.448-.04.916-.096 1.39-.166.237-.035.316-.803.554-.845.23-.041.621.645.85.598.544-.111 1.08-.24 1.59-.387.248-.072.05-.958.284-1.038.22-.074.873.66 1.075.578.512-.204.964-.43 1.325-.674.161-.108-.188-.811-.065-.927.12-.113.711.362.79.242.097-.147.16-.3.186-.456l.428 1.954c.029.13-.026.273-.152.425-.073.088-.493.672-.61.765-.108.086.09-.32-.051-.233a9.122 9.122 0 01-1.082.56c-.224.1-.846 1.088-1.095 1.185-.25.097-.125-.696-.394-.604-.56.192-1.157.371-1.766.529-.24.062-.357.688-.598.743-.236.053-.597-.464-.831-.419-.664.128-1.318.222-1.928.27-.16.012.297.653.144.659-.147.005-.906-.623-1.046-.624a5.865 5.865 0 01-1.244-.123c-.087-.02.309.71.23.686-.125-.039-.72-.836-.824-.888a1.387 1.387 0 01-.474-.363z"/>
  <g>
    <path fill="#005813" stroke="#004603" stroke-width=".3" d="M38.092 1.497c.026.118-.041.295-.298.53-.248.228-.636.474-1.14.722-1.007.495-2.448.982-4.085 1.34-1.638.36-3.15.52-4.272.491-.562-.014-1.016-.076-1.337-.179-.332-.106-.467-.24-.492-.357-.026-.117.04-.294.298-.53.248-.227.635-.474 1.14-.721 1.006-.495 2.448-.982 4.085-1.34 1.637-.36 3.15-.52 4.271-.491.562.014 1.017.075 1.337.178.333.107.467.24.493.357z"/>
    <path fill="#041F00" stroke="#004603" stroke-width=".1" d="M26.896 5.998l-.406-1.853a.263.263 0 01-.022-.1l.022.1c.073.169.326.29.712.37.13.027.084-.702.242-.685.185.02.578.784.795.791.282.01.588.008.913-.003.165-.006.18-.716.353-.727.18-.012.518.676.705.66.448-.04.916-.096 1.39-.166.237-.035.316-.803.554-.845.23-.041.621.645.85.598.544-.111 1.08-.24 1.59-.387.248-.072.05-.958.284-1.038.22-.074.873.66 1.075.578.512-.204.964-.43 1.325-.674.161-.108-.188-.811-.065-.927.12-.113.711.362.79.242.097-.147.16-.3.187-.456l.428 1.954c.028.13-.027.273-.153.425-.073.088-.493.672-.61.765-.108.086.09-.32-.051-.233a9.122 9.122 0 01-1.082.56c-.224.1-.846 1.088-1.095 1.185-.25.097-.125-.696-.394-.604-.56.192-1.157.371-1.766.529-.24.062-.357.688-.598.743-.236.054-.597-.464-.831-.419-.664.128-1.318.222-1.928.27-.16.012.297.653.144.659-.147.005-.906-.623-1.046-.624a5.863 5.863 0 01-1.244-.123c-.087-.02.309.71.23.686-.125-.039-.72-.836-.824-.888a1.388 1.388 0 01-.474-.363z"/>
  </g>
</svg>
