<svg xmlns="http://www.w3.org/2000/svg" width="43" height="13" fill="none" viewBox="0 0 43 13">
  <path fill="#C4C4C4" d="M1 8h4v4H1V8zM20.5.5h4v4h-4v-4z"/>
  <path fill="#F90" d="M1 8C8.99 6.045 13.244 4.363 20.5.5h4l-.103.04.103 3.96C16.478 6.775 12.215 8.427 5 12H1V8z"/>
  <path stroke="#CE7C00" d="M1 8C8.99 6.045 13.244 4.363 20.5.5M1 8h4M1 8v4M20.5.5h4l-.103.04M20.5.5v4M5 8C12.857 6.46 17.032 4.478 24.397.54M5 8v4m-4 0c7.2-3.518 11.427-5.221 19.5-7.5M1 12h4m15.5-7.5h4M24.397.54L24.5 4.5m0 0C16.478 6.775 12.215 8.427 5 12"/>
  <g>
    <path fill="#C4C4C4" d="M14 8h2.979v4H14V8zM28.521.5H31.5v4h-2.979v-4z"/>
    <g>
      <path fill="#F90" d="M14 8c5.95-1.955 9.118-3.637 14.521-7.5H31.5l-.077.04.077 3.96c-5.974 2.275-9.148 3.927-14.521 7.5H14V8z"/>
      <path stroke="#CE7C00" d="M14 8c5.95-1.955 9.118-3.637 14.521-7.5M14 8h2.979M14 8v4M28.521.5H31.5l-.077.04M28.521.5v4M16.98 8c5.85-1.54 8.96-3.522 14.444-7.46M16.98 8v4M14 12c5.362-3.518 8.51-5.221 14.521-7.5M14 12h2.979M28.52 4.5H31.5M31.423.54L31.5 4.5m0 0c-5.974 2.275-9.148 3.927-14.521 7.5"/>
    </g>
  </g>
  <g>
    <path fill="#C4C4C4" d="M23 8h3.149v4H23V8zM38.351.5H41.5v4h-3.149v-4z"/>
    <g>
      <path fill="#F90" d="M23 8c6.29-1.955 9.639-3.637 15.351-7.5H41.5l-.081.04.081 3.96c-6.315 2.275-9.671 3.927-15.351 7.5H23V8z"/>
      <path stroke="#CE7C00" d="M23 8c6.29-1.955 9.639-3.637 15.351-7.5M23 8h3.149M23 8v4M38.351.5H41.5l-.081.04M38.351.5v4M26.15 8c6.185-1.54 9.472-3.522 15.27-7.46M26.149 8v4M23 12c5.669-3.518 8.996-5.221 15.351-7.5M23 12h3.149M38.35 4.5H41.5M41.419.54L41.5 4.5m0 0c-6.315 2.275-9.671 3.927-15.351 7.5"/>
    </g>
  </g>
</svg>
